# xmcd
#
# Track frame offsets:
#	183
#	30310
#	60098
#	85935
#	98278
#	113670
#	118873
#	133010
#	139260
#	167973
#	179775
#	209753
#	232828
#	260388
#	298923
#
# Disc length: 4359 seconds
# Revision: 1
# Processed by: cddbd v1.5.2PL0 Copyright (c) Steve Scherf et al.
# Submitted via: dBpowerAMP V12.0
#
DISCID=d411050f
DTITLE=Various Artist - The Classic Experience III [dBP-LITE-1-FLAC@]
DYEAR=1991
DGENRE=Classical
TTITLE0=Cleveland Orchestra - Emperor Concerto, Op. 73 [Beethoven]
TTITLE1=London Symphony Orchestra - The Hebrides [Mendelssohn]
TTITLE2=Philadelphia Orchestra, The - Scheherazade [Rimsky-Korsakov]
TTITLE3=London Philharmonic Orchestra - Peter and the Wolf [Prokofiev]
TTITLE4=Philharmonia Orchestra - Farandole from L'Arlesienne [Bizet]
TTITLE5=Royal Philharmonic Orchestra - Russian Dance [Tchaikosky]
TTITLE6=Royal Philharmonic Orchestra - Ballet Egyptian [Luigini]
TTITLE7=Academy of St Martin in the Fields - The Flight of the Bumble Bee [Rimsky-Korsakov]
TTITLE8=Sinfonia of London - Dance of the Hours [Ponchielli]
TTITLE9=London Symphony Orchestra - Sabre Dance [Khachaturian]
TTITLE10=Oslo‐Filharmonien - The Sorcerers Apprentice [Dukas]
TTITLE11=Philadelphia Orchestra, The - The Rite of Spring [Stravinsky]
TTITLE12=Philadelphia Orchestra, The - España [Chabrier]
TTITLE13=Philharmonia Orchestra - Italian Caprice [Tchaikovsky]
TTITLE14=James Morris - Choral Symphony [Beethoven]
EXTD=
EXTT0=
EXTT1=
EXTT2=
EXTT3=
EXTT4=
EXTT5=
EXTT6=
EXTT7=
EXTT8=
EXTT9=
EXTT10=
EXTT11=
EXTT12=
EXTT13=
EXTT14=
PLAYORDER=
